<svg viewBox="0 0 461 478" xmlns="http://www.w3.org/2000/svg">
  <path d="M279.1 239.5C280.6 239.5 282.2 239.1 283.6 238.3C287.9 235.8 289.4 230.3 286.9 226L265 187.8C262.5 183.5 257 182 252.7 184.5C248.4 187 246.9 192.5 249.4 196.8L271.3 235C273 237.9 276 239.5 279.1 239.5Z" />
  <path d="M142.8 321C144.5 323.9 147.5 325.5 150.6 325.5C152.1 325.5 153.7 325.1 155.1 324.3C159.4 321.8 160.9 316.3 158.4 312L136.5 273.8C134 269.5 128.5 268 124.2 270.5C119.9 273 118.4 278.5 120.9 282.8L142.8 321Z" />
  <path d="M286.9 389.6L265.1 351.4C262.6 347.1 257.1 345.6 252.8 348.1C248.5 350.6 247 356.1 249.5 360.4L271.3 398.6C273 401.5 276 403.1 279.1 403.1C280.6 403.1 282.2 402.7 283.6 401.9C287.9 399.4 289.4 393.9 286.9 389.6Z" />
  <path d="M138.6 158.4C140.3 161.3 143.3 162.9 146.4 162.9C147.9 162.9 149.5 162.5 150.9 161.7C155.2 159.2 156.7 153.7 154.2 149.4L132.3 111.2C129.8 106.9 124.3 105.4 120 107.9C115.7 110.4 114.2 115.9 116.7 120.2L138.6 158.4Z" />
  <path d="M271.3 81.8C273 84.7 276 86.3 279.1 86.3C280.6 86.3 282.2 85.9 283.6 85.1C287.9 82.6 289.4 77.1 286.9 72.8L265 34.6C262.5 30.3 257 28.8 252.7 31.3C248.4 33.8 246.9 39.3 249.4 43.6L271.3 81.8Z" />
  <path d="M382.2 120.2L404.1 158.4C405.8 161.3 408.8 162.9 411.9 162.9C413.4 162.9 415 162.5 416.4 161.7C420.7 159.2 422.2 153.7 419.7 149.4L397.8 111.2C395.3 106.9 389.8 105.4 385.5 107.9C381.3 110.4 379.8 115.9 382.2 120.2Z" />
  <path d="M437.2 272.9L417.7 239.1L437.2 205.3L459.3 167C460.9 164.2 460.9 160.8 459.3 158L437.2 119.7L415.1 81.4C413.5 78.6 410.5 76.9 407.3 76.9H324L282.3 4.79999C280.7 1.99999 277.7 0.299988 274.5 0.299988H186C182.8 0.299988 179.8 1.99999 178.2 4.79999L156.1 43.1L136.5 77H53.2C50 77 47 78.7 45.4 81.5L1.2 158C-0.4 160.8 -0.4 164.2 1.2 167L42.8 239.1L1.2 311.2C-0.4 314 -0.4 317.4 1.2 320.2L45.4 396.8C47 399.6 50 401.3 53.2 401.3H136.5L156 435.1L178.1 473.4C179.7 476.2 182.7 477.9 185.9 477.9H274.4C277.6 477.9 280.6 476.2 282.2 473.4L323.9 401.3H407.2C410.4 401.3 413.4 399.6 415 396.8L437.1 358.5L459.2 320.2C460.8 317.4 460.8 314 459.2 311.2L437.2 272.9ZM441.1 162.5L421.6 196.3L402.1 230.1H324L284.9 162.5L324 94.9H402.1L441.1 162.5ZM191.2 306.7L152.1 239.1L172.1 204.4L191.1 171.5H269.2L308.2 239.1L269.1 306.7H191.2ZM191.2 18.4H269.3L308.4 86L269.3 153.6H191.2L152.1 86L191.2 18.4ZM58.4 95H136.5L175.6 162.6L136.5 230.2H58.4L19.4 162.6L58.4 95ZM19.3 315.7L58.3 248.1H136.4L175.5 315.7L136.4 383.3H58.4L19.3 315.7ZM269.3 459.8H191.2L152.1 392.2L191.2 324.6H269.3L308.4 392.2L269.3 459.8ZM402.1 383.3H324L284.9 315.7L324 248.1H402.1L441.2 315.7L402.1 383.3Z" />
  <path d="M385.6 261.1C381.3 263.6 379.8 269.1 382.3 273.4L404.2 311.6C405.9 314.5 408.9 316.1 412 316.1C413.5 316.1 415.1 315.7 416.5 314.9C420.8 312.4 422.3 306.9 419.8 302.6L397.9 264.4C395.4 260.1 389.9 258.6 385.6 261.1Z" />
</svg>
